<?xml version="1.0" standalone="no"?>
<!DOCTYPE svg PUBLIC "-//W3C//DTD SVG 20010904//EN"
 "http://www.w3.org/TR/2001/REC-SVG-20010904/DTD/svg10.dtd">
<svg version="1.0" xmlns="http://www.w3.org/2000/svg"
 width="900.000000pt" height="900.000000pt" viewBox="0 0 900.000000 900.000000"
 preserveAspectRatio="xMidYMid meet">

<g transform="translate(0.000000,900.000000) scale(0.100000,-0.100000)"
fill="#000000" stroke="none">
<path d="M0 4500 l0 -4500 4500 0 4500 0 0 4500 0 4500 -4500 0 -4500 0 0
-4500z m4908 440 c237 -39 365 -173 379 -400 7 -105 -8 -186 -47 -266 -75
-153 -237 -224 -507 -224 -154 0 -243 17 -340 65 -122 60 -180 147 -205 311
-21 134 18 293 93 378 51 58 160 113 260 131 90 16 281 19 367 5z m2827 -5
c151 -27 245 -83 286 -170 34 -74 34 -75 -93 -75 -104 0 -114 2 -137 24 -15
13 -44 29 -66 36 -58 16 -308 24 -393 12 -90 -13 -114 -31 -110 -81 5 -63 57
-75 403 -96 223 -14 328 -40 395 -101 52 -47 63 -79 59 -173 -5 -104 -35 -151
-129 -199 -92 -47 -190 -61 -411 -62 -269 0 -407 28 -494 102 -35 30 -72 99
-77 143 l-3 30 109 3 c106 3 111 2 133 -23 34 -36 69 -51 150 -64 87 -13 284
-14 372 -1 81 11 115 35 119 82 6 65 -40 81 -253 93 -341 18 -476 48 -546 120
-42 43 -57 84 -58 158 -3 179 140 252 499 256 103 1 185 -4 245 -14z m-5665
-435 l0 -440 -115 0 -115 0 0 353 -1 352 -32 -36 c-56 -63 -217 -239 -415
-457 l-194 -212 -144 0 c-79 0 -144 3 -144 6 0 3 161 184 358 401 196 218 372
414 390 435 l34 38 189 0 189 0 0 -440z m380 215 c0 -124 2 -225 4 -225 2 0
109 77 238 170 128 94 268 195 310 226 l77 54 167 -2 167 -3 -83 -60 c-45 -33
-157 -115 -249 -183 -91 -68 -173 -127 -181 -132 -12 -8 5 -28 80 -99 52 -50
100 -88 106 -86 6 1 184 130 397 284 l386 281 168 -2 168 -3 -218 -160 c-120
-88 -238 -173 -262 -190 -25 -16 -44 -33 -42 -37 1 -4 101 -98 222 -208 121
-111 238 -219 260 -241 l40 -39 -155 0 -155 1 -190 179 c-104 99 -193 180
-196 180 -4 0 -66 -44 -139 -97 l-133 -97 89 -83 89 -82 -155 -1 -155 0 -190
180 c-105 99 -193 180 -198 180 -4 0 -66 -43 -137 -96 l-130 -96 0 -84 0 -85
-112 3 -113 3 -3 425 c-1 234 0 431 3 438 3 8 36 12 115 12 l110 0 0 -225z
m3770 197 c157 -64 244 -192 256 -377 15 -210 -80 -376 -256 -447 -53 -22 -69
-23 -432 -26 l-378 -3 0 95 0 95 338 3 c297 3 342 5 377 21 89 40 119 95 119
222 1 139 -35 200 -139 236 -29 10 -99 14 -250 14 l-210 0 -3 -192 -2 -193
-115 0 -115 0 0 291 0 290 378 -3 c364 -3 379 -4 432 -26z m610 -67 l0 -95
-112 0 -113 0 2 92 c1 51 2 94 3 96 0 1 50 2 110 2 l110 0 0 -95z m0 -495 l0
-290 -115 0 -115 0 0 283 c0 156 3 287 7 290 3 4 55 7 115 7 l108 0 0 -290z"/>
<path d="M4613 4749 c-154 -30 -225 -145 -194 -313 19 -101 70 -153 178 -181
71 -19 199 -19 276 -1 129 30 182 102 182 246 0 111 -24 167 -90 209 -72 46
-233 64 -352 40z"/>
</g>
</svg>
