<?xml version="1.0" encoding="utf-8"?>
<!-- Generator: Adobe Illustrator 26.0.2, SVG Export Plug-In . SVG Version: 6.00 Build 0)  -->
<svg version="1.1" id="Layer_1" xmlns="http://www.w3.org/2000/svg" xmlns:xlink="http://www.w3.org/1999/xlink" x="0px" y="0px"
	 viewBox="0 0 1264.7 471.9" style="enable-background:new 0 0 1264.7 471.9;" xml:space="preserve">
<style type="text/css">
	.st0{fill:#1B68FA;}
</style>
<path id="IBM_xAE__2_" class="st0" d="M0,437.8h229.3v32.8H0V437.8z M0,408h229.3v-32.8H0V408z M65.5,345.5h98.3v-32.8H65.5V345.5z
	 M65.5,282.9h98.3v-32.8H65.5V282.9z M65.5,220.4h98.3v-32.8H65.5V220.4z M163.8,125.1H65.5v32.8h98.3V125.1z M0,95.3h229.3V62.5H0
	V95.3z M0,32.8h229.3V0H0V32.8z M262.1,408h349.5c5.9-10.1,10.3-21.1,13.2-32.8H262.1V408z M584.3,250.2H327.6V283h284
	C604.4,270.5,595.1,259.4,584.3,250.2z M327.6,187.6v32.8h256.7c10.9-9.2,20.1-20.3,27.3-32.8H327.6z M611.6,62.5H262.1v32.8h362.7
	C622,83.7,617.5,72.7,611.6,62.5z M503.3,0H262.1v32.8h325.6C565.5,12.4,535.8,0,503.3,0z M327.6,157.8h98.3V125h-98.3L327.6,157.8
	L327.6,157.8z M518.2,157.8H624c2.8-10.4,4.4-21.4,4.4-32.8H518.2V157.8z M327.6,345.5h98.3v-32.8h-98.3L327.6,345.5L327.6,345.5z
	 M518.2,312.7v32.8h110.2c0-11.3-1.6-22.3-4.4-32.8H518.2z M262.1,470.6h241.2c32.8,0,62.1-12.4,84.4-32.8H262.1V470.6z
	 M917.2,470.6l11.4-32.8h-22.8L917.2,470.6z M895.4,408h43.7l11.5-32.8h-66.7L895.4,408z M873.5,345.5h87.6l11.5-32.8H862
	L873.5,345.5z M851.5,282.9H983l11.5-32.8H840L851.5,282.9z M720.7,157.8h177L886.3,125H720.7V157.8z M958.6,95.3h220.8V62.5H970
	L958.6,95.3z M991.7,0l-11.4,32.8h199V0H991.7z M655.2,470.6H819v-32.8H655.2V470.6z M655.2,408H819v-32.8H655.2V408z M720.7,345.5
	H819v-32.8h-98.3V345.5z M720.7,282.9H819v-32.8h-98.3V282.9z M1113.8,125.1H948.2l-11.4,32.8h177V125.1z M1015.6,220.4h98.3v-32.8
	H926.5l-9.2,26.5l-9.2-26.5H720.7v32.8H819v-30.1l10.6,30.1H1005l10.6-30.1V220.4z M1113.8,250.2h-98.3V283h98.3V250.2z
	 M1015.6,345.5h98.3v-32.8h-98.3L1015.6,345.5L1015.6,345.5z M1015.6,408h163.8v-32.8h-163.8L1015.6,408L1015.6,408z M1015.6,470.6
	h163.8v-32.8h-163.8L1015.6,470.6L1015.6,470.6z M876,95.3l-11.4-32.8H655.2v32.8H876z M854.2,32.8L842.8,0H655.2v32.8H854.2z
	 M1214.7,446.1c0-14.6,11.1-25.8,25-25.8s25,11.1,25,25.8c0,14.6-11.1,25.8-25,25.8C1225.8,471.9,1214.7,460.8,1214.7,446.1z
	 M1258.8,447.7v-3.3c0-10.5-8.3-18.8-19.1-18.8c-10.9,0-19.1,8.3-19.1,18.8v3.3c0,10.5,8.3,18.8,19.1,18.8
	C1250.6,466.5,1258.8,458.3,1258.8,447.7z M1235.9,459.4h-6.4v-26.1h11.9c5.9,0,8.9,3.5,8.9,8.3c0,4.1-1.9,6.8-4.8,7.9l5.9,10h-7
	l-4.9-9h-3.6V459.4z M1240.7,445.6c2,0,3.1-0.9,3.1-2.8V441c0-1.9-1.1-2.8-3.1-2.8h-4.8v7.4H1240.7z"/>
</svg>
